# xmcd
#
# Track frame offsets:
# 150
# 8165
# 19747
# 30072
# 41552
# 52817
# 65175
# 76015
# 85040
# 98047
# 110712
# 124155
# 133937
# 147337
# 159927
# 172007
# 185350
# 196880
# 208537
# 221907
# 233575
# 248717
# 262777
# 273297
# 287295
# 300030
# 313502
#
# Disc length: 4302 seconds
#
#
# Revision: 3
# Processed by: cddbd v1.5.2PL0 Copyright (c) Steve Scherf et al.
# Submitted via: FreeRIP 2.945 
#
DISCID=5d10cc1b
DTITLE=Merle Haggard - Down Every Road - Disc 1
DYEAR=1900
DGENRE=Country
TTITLE0=Skid Row
TTITLE1=Sing A Sad Song
TTITLE2=You Don't Even Try
TTITLE3=Sam Hill
TTITLE4=(My Friends Are Gonna Be) Strangers
TTITLE5=Just Between The Two Of Us
TTITLE6=If I Had Left It Up To You
TTITLE7=I'm Gonna Break Every Heart I Can
TTITLE8=Swinging Doors
TTITLE9=The Bottle Let Me Down
TTITLE10=High On A Hilltop
TTITLE11=I'll Look Over You
TTITLE12=The Fugitive
TTITLE13=House Of Memories
TTITLE14=All Of Me Belongs To You
TTITLE15=Mary's Mine
TTITLE16=Someone Told My Story
TTITLE17=Go Home
TTITLE18=Whatever Happened To Me
TTITLE19=Loneliness Is Eating Me Alive
TTITLE20=I Threw The Rose Away
TTITLE21=Branded Man
TTITLE22=You Don't Have Very Far To Go
TTITLE23=Somewhere Between
TTITLE24=Sing Me Back Home
TTITLE25=The Son Of Hickory Holler's Tramp
TTITLE26=Seeing Eye Dog
EXTD=1962-67
EXTT0=
EXTT1=
EXTT2=
EXTT3=
EXTT4=
EXTT5=
EXTT6=
EXTT7=
EXTT8=
EXTT9=
EXTT10=
EXTT11=
EXTT12=
EXTT13=
EXTT14=
EXTT15=
EXTT16=
EXTT17=
EXTT18=
EXTT19=
EXTT20=
EXTT21=
EXTT22=
EXTT23=
EXTT24=
EXTT25=
EXTT26=
PLAYORDER=
